PathFileType	4	(X/Y/Z)	C:/Users/beibeiliu/ov580/test_trc/User2\sequence.37_training_dense_left.trc
DataRate	CameraRate	NumFrames	NumMarkers	Units	OrigDataRate	OrigDataStartFrame	OrigNumFrames
120	120	9	19	mm	120	60	118
Frame#	Time	ThumbCMC			ThumbMCP			ThumbIP			ThumbTip			IndexMCP			IndexPIP			IndexTip			MiddleMCP			MiddlePIP			MiddleTip			RingMCP			RingPIP			RingTip			PinkyMCP			PinkyPIP			PinkyTip			BackHand1			BackHand2			BackHand3	
		X0	Y0	Z0	X1	Y1	Z1	X2	Y2	Z2	X3	Y3	Z3	X4	Y4	Z4	X5	Y5	Z5	X6	Y6	Z6	X7	Y7	Z7	X8	Y8	Z8	X9	Y9	Z9	X10	Y10	Z10	X11	Y11	Z11	X12	Y12	Z12	X13	Y13	Z13	X14	Y14	Z14	X15	Y15	Z15	X16	Y16	Z16	X17	Y17	Z17	X18	Y18	Z18	
59	0.491667	-137.208	7.34238	-13.1427	-119.183	7.89438	-46.2368	-106.626	11.9657	-78.0022	-109.176	10.031	-106.777	-165.472	60.9285	-76.7095	-152.606	69.0777	-103.599	-142.075	63.4335	-127.325	-181.628	46.2375	-91.9563	-161.122	47.3914	-119.579	-136.638	22.3284	-136.461	-200.122	28.5547	-94.7232	-186.869	36.4065	-123.195	-162.772	29.4546	-146.193	-212.251	-4.05333	-82.1491	-224.371	10.659	-111.709	-222.741	19.4279	-133.366	-207.092	-5.10974	-39.7526	-208.206	-18.3149	-11.8744	-183.308	18.2966	-12.7899	
60	0.5	-134.754	3.67868	-13.3698	-118.086	4.08197	-46.2008	-104.581	10.223	-82.6514	-108.506	8.97517	-106.574	-162.469	58.515	-68.9232	-152.238	69.2906	-97.7243	-137.376	65.595	-128.596	-176.162	52.0694	-84.5192	-161.351	52.174	-115.89	-133.24	30.5578	-137.29	-199.419	33.9586	-89.3407	-190.34	41.7713	-119.877	-167.351	38.8785	-140.85	-212.512	4.51232	-80.1772	-224.64	17.0994	-105.493	-227.783	29.1065	-128.566	-203.989	3.10657	-39.9104	-204.733	-16.205	-8.58215	-182.069	13.834	-13.37	
61	0.508333	-132.549	1.23973	-14.5022	-114.159	1.16245	-46.6422	-102.051	5.90374	-79.6438	-104.283	8.65505	-109.265	-159.944	58.3517	-67.7366	-148.092	69.6414	-96.6204	-131.488	67.9887	-122.92	-172.895	53.3018	-84.0856	-156.919	52.0963	-117.006	-133.943	30.6073	-136.471	-198.879	34.5935	-87.3057	-187.71	46.4752	-116.097	-167.114	39.3644	-142.388	-216.23	7.64641	-79.7718	-224.001	24.0689	-103.822	-223.092	36.281	-126.466	-203.688	4.08586	-39.4552	-204.072	-13.7001	-10.8333	-176.66	16.4634	-7.14197	
62	0.516667	-131.856	-3.05578	-13.7759	-114.61	-0.23277	-49.2973	-104.34	2.7948	-78.5809	-107.356	7.49968	-108.945	-154.002	59.8136	-68.2338	-143.193	69.1666	-93.3392	-129.828	64.1801	-124.469	-169.772	51.7114	-81.4734	-150.052	50.5041	-115.292	-134.117	24.8844	-135.223	-195.005	37.9343	-87.1399	-183.85	48.3562	-113.134	-161.477	38.4554	-140.374	-213.203	9.98857	-77.1716	-222.714	26.484	-101.428	-224.101	40.3784	-126.058	-201.178	3.98542	-32.4552	-201.385	-12.9485	-8.20557	-175.005	14.3501	-8.4177	
63	0.525	-132.711	-4.81245	-14.4953	-114.457	-2.31946	-47.2218	-105.313	3.25196	-79.2182	-109.39	6.53721	-108.007	-151.058	58.1788	-66.1278	-139.259	67.7852	-94.9184	-125.293	64.0234	-122.549	-166.905	50.7301	-83.1838	-148.37	47.9977	-112.574	-127.756	19.7171	-129.457	-191.76	37.3204	-83.0306	-179.076	47.6554	-113.498	-159.249	36.6127	-137.403	-209.034	10.9217	-74.425	-221.163	27.0007	-99.5261	-218.62	44.0048	-123.355	-198.641	5.23125	-33.1694	-206.372	-15.3964	-7.68603	-174.05	16.2583	-8.07895	
64	0.533333	-135.802	-1.98187	-14.7028	-113.662	-2.21092	-44.3252	-102.763	7.66082	-81.688	-109.421	7.04932	-106.239	-152.474	60.1128	-68.1976	-139.468	69.1131	-95.8044	-125.46	66.319	-118.457	-165.572	52.4955	-81.1783	-146.748	46.3907	-114.557	-127.535	17.7407	-129.313	-193.377	38.7143	-86.7922	-180.308	46.7935	-114.101	-154.958	36.0487	-136.072	-208.612	12.4281	-76.4555	-220.099	28.2592	-100.63	-221.968	39.0507	-124.868	-201.059	4.81671	-34.738	-203.837	-14.5558	-9.18567	-173.975	14.7763	-8.7282	
65	0.541667	-136.601	2.49151	-13.9879	-115.806	6.2346	-47.3549	-103.468	8.18201	-75.9341	-107.151	10.7232	-105.199	-158.266	59.4047	-65.839	-145.978	68.396	-97.3174	-130.031	66.4356	-124.384	-170.246	51.9547	-83.4778	-152.538	46.9849	-116.692	-132.197	22.9647	-131.802	-191.339	36.6697	-88.7548	-179.518	42.4202	-118.2	-156.584	32.2328	-138.996	-210.479	9.3263	-81.2077	-221.148	18.8989	-106.196	-218.025	35.3572	-128.828	-201.639	0.622253	-35.7189	-207.913	-14.5734	-12.4485	-181.066	14.7626	-9.79525	
66	0.55	-138.04	10.6157	-13.9849	-114.713	13.175	-43.1924	-103.355	16.3729	-77.1714	-104.312	14.9809	-106.359	-165.642	60.4631	-69.6691	-153.434	70.5568	-99.343	-135.228	67.8796	-125.553	-179.749	49.4318	-89.5612	-159.746	52.5503	-116.569	-131.375	27.4444	-134.078	-195.583	29.5135	-94.867	-184.79	34.5464	-124.241	-158.018	30.0146	-140.091	-209.188	-2.19817	-83.0859	-216.737	10.2703	-110.634	-216.978	17.4414	-137.646	-203.592	-1.14482	-37.75	-205.909	-17.5877	-14.76	-185.376	16.8459	-11.7462	
67	0.558333	-141.132	17.653	-14.6947	-117.588	17.547	-44.0875	-103.596	21.4552	-78.8562	-110.295	14.2841	-107.179	-172.961	59.3642	-75.7841	-159.415	70.529	-102.039	-140.533	69.6339	-126.918	-185.561	46.1336	-91.9885	-164.559	49.5823	-122.85	-136.229	30.2746	-135.767	-196.981	25.2939	-98.1885	-180.493	30.1637	-127.8	-151.367	24.2392	-139.993	-209.508	-4.24973	-90.8581	-213.866	4.27085	-119.594	-205.867	13.806	-145.634	-206.303	-2.74126	-41.1424	-205.043	-16.7397	-16.5751	-188.624	18.3543	-15.4338	
